HIERARCHY
ROOT Root
{
  OFFSET 0.0 0.0 0.0
  CHANNELS 6 Xposition Yposition Zposition Zrotation Yrotation Xrotation
  JOINT Hips
  {
    OFFSET 0.0 100.0 0.0
    CHANNELS 6 Xposition Yposition Zposition Zrotation Yrotation Xrotation
    JOINT Spine1
    {
      OFFSET 5.003913 -0.037094 -0.013727
      CHANNELS 3 Zrotation Yrotation Xrotation
      JOINT Spine2
      {
        OFFSET 7.125363 -1e-06 0.0
        CHANNELS 3 Zrotation Yrotation Xrotation
        JOINT Chest
        {
          OFFSET 7.594027 1e-06 0.0
          CHANNELS 3 Zrotation Yrotation Xrotation
          JOINT Neck1
          {
            OFFSET 26.313086 -0.460272 -0.181672
            CHANNELS 3 Zrotation Yrotation Xrotation
            JOINT Neck2
            {
              OFFSET 8.045911 0.0 0.0
              CHANNELS 3 Zrotation Yrotation Xrotation
              JOINT Head
              {
                OFFSET 6.432774 0.0 0.0
                CHANNELS 3 Zrotation Yrotation Xrotation
                JOINT HeadEnd
                {
                  OFFSET 16.169773 0.06451 0.00362
                  CHANNELS 3 Zrotation Yrotation Xrotation
                }
                JOINT Jaw
                {
                  OFFSET 0.108741 3.12938 0.002639
                  CHANNELS 3 Zrotation Yrotation Xrotation
                }
                JOINT LeftEye
                {
                  OFFSET 4.45173 8.166359 3.206392
                  CHANNELS 3 Zrotation Yrotation Xrotation
                }
                JOINT RightEye
                {
                  OFFSET 4.436895 8.135758 -3.222429
                  CHANNELS 3 Zrotation Yrotation Xrotation
                }
              }
            }
          }
          JOINT LeftShoulder
          {
            OFFSET 23.218927 5.195579 1.621656
            CHANNELS 3 Zrotation Yrotation Xrotation
            JOINT LeftArm
            {
              OFFSET 15.902118 2e-06 -2e-06
              CHANNELS 3 Zrotation Yrotation Xrotation
              JOINT LeftForeArm
              {
                OFFSET 28.739307 0.0 -1e-06
                CHANNELS 3 Zrotation Yrotation Xrotation
                JOINT LeftHand
                {
                  OFFSET 27.093981 -4e-06 0.0
                  CHANNELS 3 Zrotation Yrotation Xrotation
                  JOINT LeftHandThumb1
                  {
                    OFFSET 2.276781 3.380274 0.83384
                    CHANNELS 3 Zrotation Yrotation Xrotation
                    JOINT LeftHandThumb2
                    {
                      OFFSET 4.705309 -1e-06 -1e-06
                      CHANNELS 3 Zrotation Yrotation Xrotation
                      JOINT LeftHandThumb3
                      {
                        OFFSET 2.798515 0.0 3e-06
                        CHANNELS 3 Zrotation Yrotation Xrotation
                        JOINT LeftHandThumbEnd
                        {
                          OFFSET 3.180793 4e-06 -4e-06
                          CHANNELS 3 Zrotation Yrotation Xrotation
                        }
                      }
                    }
                  }
                  JOINT LeftHandIndex1
                  {
                    OFFSET 3.247786 2.352677 0.137192
                    CHANNELS 3 Zrotation Yrotation Xrotation
                    JOINT LeftHandIndex2
                    {
                      OFFSET 6.367095 1e-06 0.0
                      CHANNELS 3 Zrotation Yrotation Xrotation
                      JOINT LeftHandIndex3
                      {
                        OFFSET 3.662364 0.0 0.0
                        CHANNELS 3 Zrotation Yrotation Xrotation
                        JOINT LeftHandIndex4
                        {
                          OFFSET 2.329242 4e-06 -4e-06
                          CHANNELS 3 Zrotation Yrotation Xrotation
                          JOINT LeftHandIndexEnd
                          {
                            OFFSET 2.767823 1e-06 0.0
                            CHANNELS 3 Zrotation Yrotation Xrotation
                          }
                        }
                      }
                    }
                  }
                  JOINT LeftHandMiddle1
                  {
                    OFFSET 3.163612 0.945023 -0.406112
                    CHANNELS 3 Zrotation Yrotation Xrotation
                    JOINT LeftHandMiddle2
                    {
                      OFFSET 6.276789 3e-06 0.0
                      CHANNELS 3 Zrotation Yrotation Xrotation
                      JOINT LeftHandMiddle3
                      {
                        OFFSET 4.35652 -1e-06 4e-06
                        CHANNELS 3 Zrotation Yrotation Xrotation
                        JOINT LeftHandMiddle4
                        {
                          OFFSET 2.996877 0.0 8e-06
                          CHANNELS 3 Zrotation Yrotation Xrotation
                          JOINT LeftHandMiddleEnd
                          {
                            OFFSET 2.323256 3e-06 -4e-06
                            CHANNELS 3 Zrotation Yrotation Xrotation
                          }
                        }
                      }
                    }
                  }
                  JOINT LeftHandRing1
                  {
                    OFFSET 2.882606 -0.309162 0.107445
                    CHANNELS 3 Zrotation Yrotation Xrotation
                    JOINT LeftHandRing2
                    {
                      OFFSET 6.033198 0.0 4e-06
                      CHANNELS 3 Zrotation Yrotation Xrotation
                      JOINT LeftHandRing3
                      {
                        OFFSET 4.350578 3e-06 0.0
                        CHANNELS 3 Zrotation Yrotation Xrotation
                        JOINT LeftHandRing4
                        {
                          OFFSET 2.651321 2e-06 -7e-06
                          CHANNELS 3 Zrotation Yrotation Xrotation
                          JOINT LeftHandRingEnd
                          {
                            OFFSET 1.937663 1e-06 -4e-06
                            CHANNELS 3 Zrotation Yrotation Xrotation
                          }
                        }
                      }
                    }
                  }
                  JOINT LeftHandPinky1
                  {
                    OFFSET 2.865315 -1.525436 0.575687
                    CHANNELS 3 Zrotation Yrotation Xrotation
                    JOINT LeftHandPinky2
                    {
                      OFFSET 5.54936 1e-06 -8e-06
                      CHANNELS 3 Zrotation Yrotation Xrotation
                      JOINT LeftHandPinky3
                      {
                        OFFSET 3.070974 0.0 -4e-06
                        CHANNELS 3 Zrotation Yrotation Xrotation
                        JOINT LeftHandPinky4
                        {
                          OFFSET 1.549672 1e-06 0.0
                          CHANNELS 3 Zrotation Yrotation Xrotation
                          JOINT LeftHandPinkyEnd
                          {
                            OFFSET 1.952123 0.0 0.0
                            CHANNELS 3 Zrotation Yrotation Xrotation
                          }
                        }
                      }
                    }
                  }
                }
              }
            }
          }
          JOINT RightShoulder
          {
            OFFSET 23.161716 5.296122 -1.380114
            CHANNELS 3 Zrotation Yrotation Xrotation
            JOINT RightArm
            {
              OFFSET -16.027195 -2e-06 1.1e-05
              CHANNELS 3 Zrotation Yrotation Xrotation
              JOINT RightForeArm
              {
                OFFSET -28.736639 4e-06 2e-06
                CHANNELS 3 Zrotation Yrotation Xrotation
                JOINT RightHand
                {
                  OFFSET -27.133619 6e-06 0.0
                  CHANNELS 3 Zrotation Yrotation Xrotation
                  JOINT RightHandThumb1
                  {
                    OFFSET -2.274328 -3.351035 -0.83067
                    CHANNELS 3 Zrotation Yrotation Xrotation
                    JOINT RightHandThumb2
                    {
                      OFFSET -4.703594 -3e-06 2e-06
                      CHANNELS 3 Zrotation Yrotation Xrotation
                      JOINT RightHandThumb3
                      {
                        OFFSET -2.794935 -4e-06 -3e-06
                        CHANNELS 3 Zrotation Yrotation Xrotation
                        JOINT RightHandThumbEnd
                        {
                          OFFSET -3.183852 4e-06 1e-06
                          CHANNELS 3 Zrotation Yrotation Xrotation
                        }
                      }
                    }
                  }
                  JOINT RightHandIndex1
                  {
                    OFFSET -3.253496 -2.33755 -0.127667
                    CHANNELS 3 Zrotation Yrotation Xrotation
                    JOINT RightHandIndex2
                    {
                      OFFSET -6.344434 0.0 0.0
                      CHANNELS 3 Zrotation Yrotation Xrotation
                      JOINT RightHandIndex3
                      {
                        OFFSET -3.654871 0.0 -8e-06
                        CHANNELS 3 Zrotation Yrotation Xrotation
                        JOINT RightHandIndex4
                        {
                          OFFSET -2.327586 -1e-06 0.0
                          CHANNELS 3 Zrotation Yrotation Xrotation
                          JOINT RightHandIndexEnd
                          {
                            OFFSET -2.770001 3e-06 8e-06
                            CHANNELS 3 Zrotation Yrotation Xrotation
                          }
                        }
                      }
                    }
                  }
                  JOINT RightHandMiddle1
                  {
                    OFFSET -3.168223 -0.944764 0.411762
                    CHANNELS 3 Zrotation Yrotation Xrotation
                    JOINT RightHandMiddle2
                    {
                      OFFSET -6.266691 -1e-06 -4e-06
                      CHANNELS 3 Zrotation Yrotation Xrotation
                      JOINT RightHandMiddle3
                      {
                        OFFSET -4.348901 0.0 0.0
                        CHANNELS 3 Zrotation Yrotation Xrotation
                        JOINT RightHandMiddle4
                        {
                          OFFSET -3.00024 2e-06 -4e-06
                          CHANNELS 3 Zrotation Yrotation Xrotation
                          JOINT RightHandMiddleEnd
                          {
                            OFFSET -2.321477 -4e-06 -4e-06
                            CHANNELS 3 Zrotation Yrotation Xrotation
                          }
                        }
                      }
                    }
                  }
                  JOINT RightHandRing1
                  {
                    OFFSET -2.885654 0.293261 -0.119232
                    CHANNELS 3 Zrotation Yrotation Xrotation
                    JOINT RightHandRing2
                    {
                      OFFSET -6.032835 -1e-06 -4e-06
                      CHANNELS 3 Zrotation Yrotation Xrotation
                      JOINT RightHandRing3
                      {
                        OFFSET -4.33881 0.0 -4e-06
                        CHANNELS 3 Zrotation Yrotation Xrotation
                        JOINT RightHandRing4
                        {
                          OFFSET -2.654903 -4e-06 -4e-06
                          CHANNELS 3 Zrotation Yrotation Xrotation
                          JOINT RightHandRingEnd
                          {
                            OFFSET -1.935122 0.0 4e-06
                            CHANNELS 3 Zrotation Yrotation Xrotation
                          }
                        }
                      }
                    }
                  }
                  JOINT RightHandPinky1
                  {
                    OFFSET -2.866241 1.503904 -0.60527
                    CHANNELS 3 Zrotation Yrotation Xrotation
                    JOINT RightHandPinky2
                    {
                      OFFSET -5.553177 -2e-06 0.0
                      CHANNELS 3 Zrotation Yrotation Xrotation
                      JOINT RightHandPinky3
                      {
                        OFFSET -3.062664 -1e-06 -4e-06
                        CHANNELS 3 Zrotation Yrotation Xrotation
                        JOINT RightHandPinky4
                        {
                          OFFSET -1.546529 2e-06 4e-06
                          CHANNELS 3 Zrotation Yrotation Xrotation
                          JOINT RightHandPinkyEnd
                          {
                            OFFSET -1.952341 0.0 -4e-06
                            CHANNELS 3 Zrotation Yrotation Xrotation
                          }
                        }
                      }
                    }
                  }
                }
              }
            }
          }
        }
      }
    }
    JOINT LeftLeg
    {
      OFFSET -8.443107 2.567604 10.043214
      CHANNELS 3 Zrotation Yrotation Xrotation
      JOINT LeftShin
      {
        OFFSET 43.229198 1e-06 -1e-06
        CHANNELS 3 Zrotation Yrotation Xrotation
        JOINT LeftFoot
        {
          OFFSET 42.298611 1e-06 1e-06
          CHANNELS 3 Zrotation Yrotation Xrotation
          JOINT LeftToeBase
          {
            OFFSET 14.165858 1e-06 0.0
            CHANNELS 3 Zrotation Yrotation Xrotation
            JOINT LeftToeEnd
            {
              OFFSET 6.7141 -0.234461 0.0
              CHANNELS 3 Zrotation Yrotation Xrotation
            }
          }
        }
      }
    }
    JOINT RightLeg
    {
      OFFSET -8.303923 2.592729 -10.047278
      CHANNELS 3 Zrotation Yrotation Xrotation
      JOINT RightShin
      {
        OFFSET -43.369682 0.0 1e-06
        CHANNELS 3 Zrotation Yrotation Xrotation
        JOINT RightFoot
        {
          OFFSET -42.260784 4e-06 2e-06
          CHANNELS 3 Zrotation Yrotation Xrotation
          JOINT RightToeBase
          {
            OFFSET -14.222245 -2e-06 -1e-06
            CHANNELS 3 Zrotation Yrotation Xrotation
            JOINT RightToeEnd
            {
              OFFSET -6.660062 0.232574 -2e-06
              CHANNELS 3 Zrotation Yrotation Xrotation
            }
          }
        }
      }
    }
  }
}
MOTION
Frames: 5
Frame Time: 0.03333333333333333
0.0 0.0 0.0 0.0 -0.0 0.0 -1.573737 49.032478 6.164186 87.959213 -61.775723 89.69381 11.126286 -0.839251 -0.26706 -5.513768 -1.040379 0.5358 17.988415 -0.612095 -1.702555 18.734056 2.906828 4.239168 -2.877975 -0.102169 2.375649 -27.882492 3.690653 0.751629 5e-06 -0.0 0.0 -0.215871 -0.018766 0.028749 -0.23335 0.055222 0.030432 -0.22855 -0.09197 0.025242 -42.393856 -71.295319 47.218777 94.457016 0.720507 -22.712399 5.036178 -1.165796 -0.054523 91.907608 78.246101 95.746384 17.636642 -26.322741 52.411213 -19.466665 -14.3956 29.410395 0.0 -8.774824 -3e-06 15.124416 -17.853848 6.520236 -0.609777 -1.795654 -3.889329 -4.807091 -11.046813 -2.937851 3e-06 -20.976021 -0.0 -5.019972 -25.033558 -4.031882 6e-06 -3e-06 1e-06 -10.634538 -5.686973 -3.565589 10.573277 -17.922955 -3.113901 2e-06 -13.821213 1e-06 -0.501778 -31.181507 -4.027017 -10.199907 -57.700577 6.368099 -13.982718 -7.1502 -2.875042 13.772733 -8.401493 -3.218241 0.347732 -34.211559 0.771656 -0.963029 -17.733372 2.621021 -0.0 -1e-06 -0.0 -17.346424 -20.095221 -4.201784 21.757566 -1.638375 3.866431 1e-06 -6.338825 1e-06 -1.697591 -22.591755 -6.194008 0.0 -6e-06 -2e-06 148.371552 -69.542671 34.35207 99.714462 -8.551201 -32.529575 6.342 -0.699177 -0.032917 11.36153 72.66082 5.932492 22.182121 -20.375895 49.933315 -16.701811 -16.743526 28.476528 -3e-06 -12.690601 -1e-06 17.137989 -17.93276 2.158401 -0.105919 -1.513855 -4.275882 -5.039041 -5.612871 -2.953556 2e-06 -11.020524 -1e-06 -6.111297 -15.895334 -3.840471 -2e-06 0.0 -2e-06 -10.283373 -5.680286 -4.341839 11.028295 -11.302406 -2.372632 -1.38427 -14.238581 -6.32012 -0.62544 -26.924189 -3.827599 -4.043236 -49.387306 -4.24883 -13.708526 -7.363475 -3.720941 18.141148 -14.05274 -3.242673 5e-06 -18.787271 -0.0 -0.429711 -8.456042 2.555503 0.0 1e-06 0.0 -15.923539 -20.094482 -5.473584 30.419214 -7.190827 1.735928 1e-06 -8.162927 -1e-06 -1.861901 -22.861473 -6.167943 -0.0 -4e-06 -1e-06 117.779099 -10.767803 6.994361 109.559296 -0.725664 0.361064 -78.661247 15.958949 -14.9897 -15.898622 1.428609 2.298453 -0.999999 0.0 0.0 -59.206573 1.774394 0.588599 104.717766 -0.195473 -0.074929 -65.025826 -6.497545 -0.163127 -10.313887 0.791915 1.742364 -1.000004 0.0 -0.0 
0.0 0.0 0.0 0.0 -0.0 0.0 -1.478698 49.021458 6.269951 87.644882 -61.878372 89.85244 11.05397 -0.788524 -0.199682 -5.591225 -1.006156 0.587327 18.066908 -0.578035 -1.579507 18.869171 2.757345 4.114005 -2.876877 -0.12512 2.302793 -27.788641 3.79846 0.649849 6e-06 -0.0 0.0 -0.216884 -0.062136 0.035711 -0.213949 0.006207 0.040303 -0.209951 -0.127946 0.027143 -42.605419 -71.388992 47.745739 94.748497 0.974595 -23.004166 4.722626 -1.101743 -0.043924 92.345627 77.67334 95.907555 17.636627 -26.322731 52.411198 -19.466658 -14.395597 29.410389 -1e-06 -8.774821 -2e-06 15.089011 -17.89657 6.572426 -0.609777 -1.795654 -3.889328 -4.807087 -11.046809 -2.93785 4e-06 -20.976015 -0.0 -5.019968 -25.033554 -4.03188 5e-06 -1e-06 -0.0 -10.634535 -5.686971 -3.565588 10.573275 -17.922949 -3.1139 3e-06 -13.821209 1e-06 -0.501777 -31.181501 -4.027016 -10.201854 -57.904835 6.441956 -13.982712 -7.150198 -2.875043 13.772727 -8.401491 -3.218241 0.347734 -34.211544 0.771655 -0.963029 -17.73337 2.62102 -0.0 1e-06 0.0 -17.346416 -20.095217 -4.201784 21.757557 -1.638374 3.866429 1e-06 -6.338824 1e-06 -1.697589 -22.591745 -6.194006 -0.0 -5e-06 -2e-06 148.371567 -69.445221 34.527756 99.638397 -8.452714 -32.6716 6.345373 -0.629935 -0.020703 12.350467 72.422562 6.617593 22.182117 -20.375898 49.933327 -16.701811 -16.743528 28.476532 -2e-06 -12.6906 0.0 17.091484 -17.915176 2.214179 -0.10592 -1.513855 -4.275881 -5.039041 -5.612873 -2.953555 2e-06 -11.020518 -1e-06 -6.111299 -15.89533 -3.840471 -0.0 1e-06 -0.0 -10.283372 -5.680287 -4.34184 11.028291 -11.302402 -2.372631 -1.38427 -14.238579 -6.320119 -0.625439 -26.924183 -3.827599 -4.057298 -49.581184 -4.155586 -13.708524 -7.363474 -3.72094 18.141148 -14.052734 -3.242673 4e-06 -18.787268 0.0 -0.429712 -8.456041 2.555502 -0.0 0.0 0.0 -15.923536 -20.094482 -5.473585 30.41921 -7.190824 1.735927 0.0 -8.162925 1e-06 -1.861903 -22.861467 -6.167941 -0.0 -3e-06 -2e-06 117.795448 -10.825222 6.973816 109.501884 -0.788554 0.3622 -78.741364 15.860123 -14.883632 -15.803489 1.461908 2.267187 -0.999999 -0.0 0.0 -59.202694 1.924028 0.599541 104.487488 -0.194852 -0.101611 -64.627609 -6.585582 -0.121905 -10.230037 0.781892 1.748807 -1.000003 0.0 -0.0 
0.0 0.0 0.0 0.0 -0.0 0.0 -1.412502 49.019913 6.355216 87.532921 -61.942112 89.898277 10.965108 -0.756973 -0.134605 -5.65638 -0.990161 0.651623 18.154505 -0.573802 -1.518738 19.062918 2.697804 3.981977 -2.885473 -0.189274 2.248565 -27.805044 3.815773 0.581159 7e-06 -0.0 -0.0 -0.211183 -0.093565 0.042088 -0.24588 -0.028245 0.034291 -0.233511 -0.155255 0.042071 -42.407127 -71.412613 47.768036 94.933273 1.108082 -22.946972 4.541274 -1.10274 -0.037531 92.542297 77.572075 95.776001 17.636625 -26.322733 52.411198 -19.466661 -14.395597 29.410393 -1e-06 -8.774821 -2e-06 15.134779 -17.889534 6.524514 -0.609776 -1.795654 -3.889327 -4.807087 -11.046811 -2.93785 5e-06 -20.976019 -1e-06 -5.019969 -25.033556 -4.03188 6e-06 -2e-06 0.0 -10.634533 -5.68697 -3.565588 10.573272 -17.922949 -3.113901 3e-06 -13.821209 1e-06 -0.501776 -31.181498 -4.027016 -10.117096 -58.002815 6.415611 -13.982712 -7.150198 -2.875041 13.772729 -8.401493 -3.218242 0.347735 -34.211552 0.771653 -0.963028 -17.73337 2.621019 -0.0 1e-06 -0.0 -17.346416 -20.095219 -4.201782 21.757555 -1.638375 3.866427 1e-06 -6.338822 0.0 -1.697588 -22.591742 -6.194006 0.0 -5e-06 -2e-06 148.572128 -69.393806 34.492119 99.391731 -8.392652 -32.681469 6.471186 -0.622935 -0.01598 13.215925 72.352615 7.57604 22.182114 -20.375898 49.933327 -16.701818 -16.74353 28.476536 -3e-06 -12.690602 1e-06 17.065271 -17.843723 2.255389 -0.10592 -1.513855 -4.275883 -5.039041 -5.612874 -2.953556 4e-06 -11.020527 -2e-06 -6.111297 -15.895336 -3.840471 -0.0 1e-06 -1e-06 -10.28337 -5.680288 -4.34184 11.028294 -11.302407 -2.372635 -1.384268 -14.238585 -6.320122 -0.625437 -26.924194 -3.827603 -4.016523 -49.626656 -4.107212 -13.708524 -7.363475 -3.720939 18.14115 -14.05274 -3.242678 6e-06 -18.787271 -2e-06 -0.429712 -8.456045 2.555504 0.0 2e-06 -0.0 -15.923536 -20.09449 -5.473586 30.419218 -7.190824 1.735923 2e-06 -8.162927 -1e-06 -1.861901 -22.861473 -6.167942 1e-06 -4e-06 -2e-06 117.859215 -10.794039 6.940992 109.465553 -0.820821 0.368673 -79.121796 15.698413 -14.896312 -16.017818 1.481379 2.246403 -0.999998 -0.0 -0.0 -59.176167 2.006505 0.689321 104.330734 -0.177481 -0.10657 -64.414421 -6.583897 -0.148547 -10.229791 0.772093 1.755817 -1.000001 0.0 0.0 
0.0 0.0 0.0 0.0 -0.0 0.0 -1.3699 49.017464 6.40534 87.488083 -62.04393 89.941498 10.876845 -0.740739 -0.084363 -5.717792 -0.977075 0.698987 18.184521 -0.542767 -1.495794 19.204645 2.609745 3.847888 -2.889232 -0.238761 2.205596 -27.910803 3.825575 0.535399 4e-06 0.0 -0.0 -0.206758 -0.120136 0.048257 -0.288486 -0.055626 0.025067 -0.264932 -0.181331 0.061149 -42.269119 -71.386894 47.805908 95.118431 1.160517 -22.95643 4.450525 -1.124495 -0.038422 93.174881 77.468376 96.422028 17.636627 -26.322729 52.411186 -19.466663 -14.395598 29.410389 -2e-06 -8.774821 -2e-06 15.134397 -17.855654 6.49536 -0.609776 -1.795654 -3.889328 -4.807089 -11.046811 -2.937851 5e-06 -20.976019 -1e-06 -5.019969 -25.033556 -4.031882 6e-06 -1e-06 -0.0 -10.634535 -5.686971 -3.565587 10.573276 -17.922953 -3.113902 3e-06 -13.821213 1e-06 -0.501776 -31.181511 -4.027018 -10.061569 -58.023544 6.365436 -13.982714 -7.150198 -2.875042 13.772731 -8.401493 -3.218243 0.347734 -34.211555 0.771654 -0.963028 -17.73337 2.621019 -0.0 -1e-06 0.0 -17.34642 -20.095219 -4.201782 21.757561 -1.638376 3.866428 1e-06 -6.338824 0.0 -1.697589 -22.591747 -6.194008 -0.0 -5e-06 -2e-06 148.697739 -69.288338 34.456696 99.154282 -8.420138 -32.601578 6.711718 -0.638681 -0.020453 13.864388 72.356781 8.480633 22.182116 -20.3759 49.933327 -16.701817 -16.743532 28.47654 -4e-06 -12.690604 2e-06 17.081152 -17.802702 2.291913 -0.105919 -1.513857 -4.275883 -5.039042 -5.612873 -2.953556 4e-06 -11.020527 -1e-06 -6.111298 -15.895338 -3.840472 -0.0 1e-06 1e-06 -10.283373 -5.680288 -4.341839 11.028296 -11.302406 -2.372634 -1.384268 -14.238585 -6.320124 -0.625437 -26.924198 -3.827602 -4.007032 -49.69381 -4.038979 -13.708527 -7.363477 -3.720941 18.141153 -14.052742 -3.242676 5e-06 -18.787275 -1e-06 -0.429713 -8.456046 2.555504 0.0 1e-06 1e-06 -15.923536 -20.094486 -5.473587 30.419222 -7.190828 1.735923 2e-06 -8.162927 0.0 -1.861902 -22.861475 -6.167942 1e-06 -2e-06 -2e-06 117.832352 -10.716082 6.954976 109.476357 -0.827674 0.377036 -79.620926 15.586271 -14.98013 -16.348312 1.493982 2.231125 -0.999998 0.0 0.0 -59.216995 2.03358 0.790244 104.283783 -0.132112 -0.105538 -64.558807 -6.570371 -0.191323 -10.270846 0.764837 1.763766 -1.000002 -0.0 0.0 
0.0 0.0 0.0 0.0 -0.0 0.0 -1.325093 49.028061 6.415676 87.439941 -62.155685 89.999557 10.820709 -0.732147 -0.050925 -5.775599 -0.968561 0.73945 18.1756 -0.481779 -1.497029 19.290289 2.476082 3.711468 -2.883237 -0.264881 2.199203 -27.990116 3.881829 0.524201 7e-06 0.0 -0.0 -0.206027 -0.149436 0.055302 -0.323429 -0.088748 0.022858 -0.287516 -0.207927 0.076548 -42.30056 -71.342102 47.964985 95.282051 1.153021 -23.042175 4.404341 -1.16715 -0.03971 94.161491 77.287178 97.486191 17.636625 -26.322729 52.411194 -19.46666 -14.395597 29.410385 -0.0 -8.774822 -2e-06 15.100522 -17.821569 6.49211 -0.609776 -1.795654 -3.889327 -4.807087 -11.046809 -2.937849 4e-06 -20.976015 -1e-06 -5.019969 -25.033558 -4.03188 6e-06 0.0 0.0 -10.634533 -5.686969 -3.565586 10.573274 -17.922947 -3.1139 3e-06 -13.821208 1e-06 -0.501777 -31.181498 -4.027016 -10.074293 -58.009296 6.350783 -13.982712 -7.150197 -2.875041 13.772727 -8.401491 -3.218241 0.347734 -34.211555 0.771654 -0.963029 -17.73337 2.621019 -0.0 -1e-06 0.0 -17.346413 -20.095215 -4.20178 21.757555 -1.638375 3.866427 1e-06 -6.338822 1e-06 -1.697589 -22.591738 -6.194005 0.0 -6e-06 -2e-06 148.792862 -69.125633 34.396317 98.973808 -8.486823 -32.53717 6.987839 -0.671006 -0.026314 14.50454 72.411697 9.354447 22.182116 -20.375895 49.933323 -16.701809 -16.743528 28.476526 -2e-06 -12.690598 0.0 17.128765 -17.79328 2.322247 -0.105919 -1.513854 -4.275882 -5.039041 -5.612871 -2.953557 4e-06 -11.020519 -1e-06 -6.111297 -15.895328 -3.840473 1e-06 1e-06 0.0 -10.283368 -5.680286 -4.341839 11.028292 -11.302404 -2.372633 -1.384268 -14.238579 -6.32012 -0.625438 -26.924183 -3.827601 -4.016573 -49.785667 -3.986538 -13.708523 -7.363474 -3.72094 18.141146 -14.052735 -3.242672 5e-06 -18.78727 -2e-06 -0.429711 -8.456041 2.555503 -0.0 0.0 0.0 -15.923532 -20.094479 -5.473586 30.41921 -7.190825 1.735927 2e-06 -8.162925 0.0 -1.861903 -22.861469 -6.167941 0.0 -3e-06 -2e-06 117.743408 -10.616796 6.998762 109.551239 -0.830399 0.376598 -80.326233 15.502921 -15.155218 -16.714832 1.500206 2.225311 -1.0 -0.0 -0.0 -59.31514 2.05808 0.884381 104.301865 -0.093733 -0.104304 -64.851112 -6.504183 -0.212918 -10.405797 0.758108 1.771071 -1.0 -0.0 0.0 
